<svg data-v-423bf9ae="" xmlns="http://www.w3.org/2000/svg" viewBox="0 0 315.2485301977552 60" class="font"><!----><!----><!----><g data-v-423bf9ae="" id="8b41ae43-7477-4fdf-af27-203889d78795" fill="white" transform="matrix(4.104756832122803,0,0,4.104756832122803,-3.3671815395355225,-11.047568321228027)"><path d="M5.11 12.56L5.11 12.56L5.11 12.56Q4.94 12.71 4.70 12.92L4.70 12.92L4.70 12.92Q4.46 13.13 4.15 13.32L4.15 13.32L4.15 13.32Q3.85 13.51 3.49 13.64L3.49 13.64L3.49 13.64Q3.13 13.78 2.73 13.78L2.73 13.78L2.73 13.78Q2.37 13.78 2.02 13.65L2.02 13.65L2.02 13.65Q1.67 13.53 1.41 13.28L1.41 13.28L1.41 13.28Q1.14 13.03 0.98 12.66L0.98 12.66L0.98 12.66Q0.82 12.29 0.82 11.81L0.82 11.81L0.82 11.81Q0.82 11.52 0.89 11.22L0.89 11.22L0.89 11.22Q0.96 10.92 1.13 10.64L1.13 10.64L1.13 10.64Q1.31 10.36 1.58 10.12L1.58 10.12L1.58 10.12Q1.86 9.88 2.27 9.70L2.27 9.70L2.27 9.70Q2.67 9.52 3.23 9.41L3.23 9.41L3.23 9.41Q3.78 9.31 4.50 9.31L4.50 9.31L5.11 9.31L5.11 8.68L5.11 8.68Q5.11 8.37 5.00 8.11L5.00 8.11L5.00 8.11Q4.89 7.86 4.70 7.68L4.70 7.68L4.70 7.68Q4.50 7.50 4.23 7.40L4.23 7.40L4.23 7.40Q3.96 7.30 3.64 7.30L3.64 7.30L3.64 7.30Q3.39 7.30 3.11 7.36L3.11 7.36L3.11 7.36Q2.84 7.41 2.56 7.51L2.56 7.51L2.56 7.51Q2.28 7.62 2.03 7.75L2.03 7.75L2.03 7.75Q1.78 7.89 1.59 8.05L1.59 8.05L1.46 7.98L1.19 6.99L1.19 6.99Q1.59 6.77 1.96 6.63L1.96 6.63L1.96 6.63Q2.32 6.49 2.66 6.41L2.66 6.41L2.66 6.41Q3.00 6.32 3.31 6.29L3.31 6.29L3.31 6.29Q3.62 6.26 3.90 6.26L3.90 6.26L3.90 6.26Q5.17 6.26 5.79 6.79L5.79 6.79L5.79 6.79Q6.41 7.32 6.41 8.38L6.41 8.38L6.41 11.95L6.41 11.95Q6.41 12.04 6.43 12.16L6.43 12.16L6.43 12.16Q6.44 12.29 6.49 12.41L6.49 12.41L6.49 12.41Q6.54 12.52 6.64 12.61L6.64 12.61L6.64 12.61Q6.74 12.69 6.91 12.69L6.91 12.69L6.91 12.69Q7.01 12.69 7.16 12.66L7.16 12.66L7.16 12.66Q7.32 12.63 7.48 12.55L7.48 12.55L7.48 13.28L7.48 13.28Q7.15 13.50 6.82 13.64L6.82 13.64L6.82 13.64Q6.49 13.78 6.18 13.78L6.18 13.78L6.18 13.78Q5.90 13.78 5.72 13.67L5.72 13.67L5.72 13.67Q5.54 13.56 5.42 13.38L5.42 13.38L5.42 13.38Q5.30 13.20 5.23 12.98L5.23 12.98L5.23 12.98Q5.16 12.77 5.11 12.56ZM5.11 11.69L5.11 10.10L4.59 10.10L4.59 10.10Q3.79 10.10 3.32 10.22L3.32 10.22L3.32 10.22Q2.84 10.33 2.59 10.52L2.59 10.52L2.59 10.52Q2.34 10.71 2.27 10.95L2.27 10.95L2.27 10.95Q2.19 11.20 2.19 11.46L2.19 11.46L2.19 11.46Q2.19 11.75 2.27 11.98L2.27 11.98L2.27 11.98Q2.35 12.20 2.50 12.36L2.50 12.36L2.50 12.36Q2.65 12.52 2.85 12.61L2.85 12.61L2.85 12.61Q3.06 12.69 3.29 12.69L3.29 12.69L3.29 12.69Q3.48 12.69 3.67 12.64L3.67 12.64L3.67 12.64Q3.87 12.60 4.09 12.49L4.09 12.49L4.09 12.49Q4.31 12.37 4.56 12.18L4.56 12.18L4.56 12.18Q4.81 11.99 5.11 11.69L5.11 11.69ZM10.36 8.45L10.36 12.41L10.36 12.41Q10.55 12.51 10.76 12.57L10.76 12.57L10.76 12.57Q10.98 12.63 11.19 12.67L11.19 12.67L11.19 12.67Q11.41 12.71 11.61 12.73L11.61 12.73L11.61 12.73Q11.81 12.74 11.95 12.74L11.95 12.74L11.95 12.74Q12.51 12.74 12.98 12.53L12.98 12.53L12.98 12.53Q13.45 12.32 13.78 11.94L13.78 11.94L13.78 11.94Q14.12 11.57 14.30 11.06L14.30 11.06L14.30 11.06Q14.49 10.55 14.49 9.95L14.49 9.95L14.49 9.95Q14.49 9.43 14.34 8.96L14.34 8.96L14.34 8.96Q14.19 8.48 13.92 8.13L13.92 8.13L13.92 8.13Q13.65 7.77 13.27 7.56L13.27 7.56L13.27 7.56Q12.89 7.36 12.43 7.36L12.43 7.36L12.43 7.36Q11.87 7.36 11.34 7.66L11.34 7.66L11.34 7.66Q10.82 7.96 10.36 8.45L10.36 8.45ZM10.04 6.40L10.27 7.66L10.27 7.66Q10.51 7.42 10.80 7.18L10.80 7.18L10.80 7.18Q11.09 6.93 11.44 6.73L11.44 6.73L11.44 6.73Q11.78 6.52 12.17 6.39L12.17 6.39L12.17 6.39Q12.57 6.26 13.02 6.26L13.02 6.26L13.02 6.26Q13.69 6.26 14.21 6.55L14.21 6.55L14.21 6.55Q14.73 6.84 15.10 7.32L15.10 7.32L15.10 7.32Q15.46 7.81 15.66 8.43L15.66 8.43L15.66 8.43Q15.85 9.06 15.85 9.73L15.85 9.73L15.85 9.73Q15.85 10.61 15.53 11.35L15.53 11.35L15.53 11.35Q15.20 12.10 14.65 12.64L14.65 12.64L14.65 12.64Q14.10 13.18 13.35 13.48L13.35 13.48L13.35 13.48Q12.61 13.78 11.78 13.78L11.78 13.78L11.78 13.78Q11.44 13.78 11.05 13.73L11.05 13.73L11.05 13.73Q10.66 13.69 10.36 13.60L10.36 13.60L10.36 17.31L9.06 17.31L9.06 6.40L10.04 6.40ZM17.80 13.64L17.80 6.40L19.10 6.40L19.10 13.64L17.80 13.64ZM18.46 4.83L18.46 4.83L18.46 4.83Q18.29 4.83 18.14 4.76L18.14 4.76L18.14 4.76Q17.99 4.70 17.88 4.59L17.88 4.59L17.88 4.59Q17.77 4.48 17.71 4.34L17.71 4.34L17.71 4.34Q17.64 4.19 17.64 4.01L17.64 4.01L17.64 4.01Q17.64 3.83 17.71 3.68L17.71 3.68L17.71 3.68Q17.78 3.52 17.89 3.40L17.89 3.40L17.89 3.40Q18.01 3.29 18.16 3.22L18.16 3.22L18.16 3.22Q18.31 3.16 18.48 3.16L18.48 3.16L18.48 3.16Q18.65 3.16 18.80 3.22L18.80 3.22L18.80 3.22Q18.94 3.29 19.05 3.40L19.05 3.40L19.05 3.40Q19.16 3.52 19.22 3.67L19.22 3.67L19.22 3.67Q19.28 3.83 19.28 4.00L19.28 4.00L19.28 4.00Q19.28 4.18 19.22 4.34L19.22 4.34L19.22 4.34Q19.15 4.49 19.03 4.60L19.03 4.60L19.03 4.60Q18.92 4.70 18.77 4.76L18.77 4.76L18.77 4.76Q18.62 4.83 18.46 4.83ZM22.83 8.45L22.83 12.41L22.83 12.41Q23.02 12.51 23.23 12.57L23.23 12.57L23.23 12.57Q23.45 12.63 23.66 12.67L23.66 12.67L23.66 12.67Q23.88 12.71 24.08 12.73L24.08 12.73L24.08 12.73Q24.27 12.74 24.42 12.74L24.42 12.74L24.42 12.74Q24.98 12.74 25.45 12.53L25.45 12.53L25.45 12.53Q25.92 12.32 26.25 11.94L26.25 11.94L26.25 11.94Q26.58 11.57 26.77 11.06L26.77 11.06L26.77 11.06Q26.95 10.55 26.95 9.95L26.95 9.95L26.95 9.95Q26.95 9.43 26.81 8.96L26.81 8.96L26.81 8.96Q26.66 8.48 26.39 8.13L26.39 8.13L26.39 8.13Q26.12 7.77 25.74 7.56L25.74 7.56L25.74 7.56Q25.36 7.36 24.90 7.36L24.90 7.36L24.90 7.36Q24.34 7.36 23.81 7.66L23.81 7.66L23.81 7.66Q23.29 7.96 22.83 8.45L22.83 8.45ZM22.51 6.40L22.74 7.66L22.74 7.66Q22.98 7.42 23.27 7.18L23.27 7.18L23.27 7.18Q23.56 6.93 23.91 6.73L23.91 6.73L23.91 6.73Q24.25 6.52 24.64 6.39L24.64 6.39L24.64 6.39Q25.04 6.26 25.49 6.26L25.49 6.26L25.49 6.26Q26.15 6.26 26.68 6.55L26.68 6.55L26.68 6.55Q27.20 6.84 27.57 7.32L27.57 7.32L27.57 7.32Q27.93 7.81 28.13 8.43L28.13 8.43L28.13 8.43Q28.32 9.06 28.32 9.73L28.32 9.73L28.32 9.73Q28.32 10.61 28.00 11.35L28.00 11.35L28.00 11.35Q27.67 12.10 27.12 12.64L27.12 12.64L27.12 12.64Q26.56 13.18 25.82 13.48L25.82 13.48L25.82 13.48Q25.08 13.78 24.25 13.78L24.25 13.78L24.25 13.78Q23.91 13.78 23.52 13.73L23.52 13.73L23.52 13.73Q23.13 13.69 22.83 13.60L22.83 13.60L22.83 17.31L21.53 17.31L21.53 6.40L22.51 6.40ZM33.22 13.78L33.22 13.78L33.22 13.78Q32.41 13.78 31.78 13.49L31.78 13.49L31.78 13.49Q31.15 13.21 30.72 12.72L30.72 12.72L30.72 12.72Q30.28 12.24 30.05 11.59L30.05 11.59L30.05 11.59Q29.83 10.94 29.83 10.23L29.83 10.23L29.83 10.23Q29.83 9.41 30.12 8.69L30.12 8.69L30.12 8.69Q30.41 7.96 30.92 7.42L30.92 7.42L30.92 7.42Q31.44 6.88 32.15 6.57L32.15 6.57L32.15 6.57Q32.86 6.26 33.69 6.26L33.69 6.26L33.69 6.26Q34.51 6.26 35.14 6.55L35.14 6.55L35.14 6.55Q35.78 6.84 36.21 7.33L36.21 7.33L36.21 7.33Q36.65 7.83 36.87 8.47L36.87 8.47L36.87 8.47Q37.10 9.12 37.10 9.83L37.10 9.83L37.10 9.83Q37.10 10.66 36.80 11.38L36.80 11.38L36.80 11.38Q36.51 12.10 35.99 12.63L35.99 12.63L35.99 12.63Q35.47 13.17 34.76 13.47L34.76 13.47L34.76 13.47Q34.05 13.78 33.22 13.78ZM33.50 12.74L33.50 12.74L33.50 12.74Q34.00 12.74 34.41 12.54L34.41 12.54L34.41 12.54Q34.82 12.34 35.11 11.99L35.11 11.99L35.11 11.99Q35.40 11.64 35.56 11.17L35.56 11.17L35.56 11.17Q35.72 10.69 35.72 10.14L35.72 10.14L35.72 10.14Q35.72 9.60 35.56 9.10L35.56 9.10L35.56 9.10Q35.40 8.59 35.11 8.19L35.11 8.19L35.11 8.19Q34.81 7.79 34.38 7.54L34.38 7.54L34.38 7.54Q33.95 7.30 33.41 7.30L33.41 7.30L33.41 7.30Q32.91 7.30 32.50 7.50L32.50 7.50L32.50 7.50Q32.09 7.70 31.80 8.06L31.80 8.06L31.80 8.06Q31.51 8.41 31.35 8.89L31.35 8.89L31.35 8.89Q31.19 9.37 31.19 9.91L31.19 9.91L31.19 9.91Q31.19 10.45 31.35 10.96L31.35 10.96L31.35 10.96Q31.51 11.47 31.80 11.87L31.80 11.87L31.80 11.87Q32.10 12.26 32.53 12.50L32.53 12.50L32.53 12.50Q32.96 12.74 33.50 12.74ZM39.69 11.83L39.69 7.44L38.23 7.44L38.34 6.77L38.34 6.77Q38.87 6.66 39.19 6.49L39.19 6.49L39.19 6.49Q39.51 6.32 39.72 6.07L39.72 6.07L39.72 6.07Q39.93 5.82 40.07 5.46L40.07 5.46L40.07 5.46Q40.21 5.10 40.39 4.60L40.39 4.60L40.99 4.60L40.99 6.40L43.61 6.40L43.34 7.44L40.99 7.44L40.99 11.48L40.99 11.48Q40.99 11.81 41.09 12.04L41.09 12.04L41.09 12.04Q41.19 12.27 41.36 12.41L41.36 12.41L41.36 12.41Q41.54 12.56 41.79 12.62L41.79 12.62L41.79 12.62Q42.05 12.69 42.36 12.69L42.36 12.69L42.36 12.69Q42.67 12.69 42.98 12.63L42.98 12.63L42.98 12.63Q43.29 12.57 43.57 12.47L43.57 12.47L43.57 13.21L43.57 13.21Q43.14 13.49 42.67 13.63L42.67 13.63L42.67 13.63Q42.19 13.78 41.70 13.78L41.70 13.78L41.70 13.78Q41.24 13.78 40.87 13.65L40.87 13.65L40.87 13.65Q40.50 13.52 40.24 13.28L40.24 13.28L40.24 13.28Q39.98 13.03 39.83 12.66L39.83 12.66L39.83 12.66Q39.69 12.30 39.69 11.83L39.69 11.83ZM52.57 12.56L52.57 12.56L52.57 12.56Q52.40 12.71 52.15 12.92L52.15 12.92L52.15 12.92Q51.91 13.13 51.61 13.32L51.61 13.32L51.61 13.32Q51.30 13.51 50.94 13.64L50.94 13.64L50.94 13.64Q50.59 13.78 50.18 13.78L50.18 13.78L50.18 13.78Q49.82 13.78 49.48 13.65L49.48 13.65L49.48 13.65Q49.13 13.53 48.86 13.28L48.86 13.28L48.86 13.28Q48.60 13.03 48.44 12.66L48.44 12.66L48.44 12.66Q48.28 12.29 48.28 11.81L48.28 11.81L48.28 11.81Q48.28 11.52 48.35 11.22L48.35 11.22L48.35 11.22Q48.42 10.92 48.59 10.64L48.59 10.64L48.59 10.64Q48.76 10.36 49.04 10.12L49.04 10.12L49.04 10.12Q49.31 9.88 49.72 9.70L49.72 9.70L49.72 9.70Q50.13 9.52 50.68 9.41L50.68 9.41L50.68 9.41Q51.24 9.31 51.95 9.31L51.95 9.31L52.57 9.31L52.57 8.68L52.57 8.68Q52.57 8.37 52.46 8.11L52.46 8.11L52.46 8.11Q52.35 7.86 52.15 7.68L52.15 7.68L52.15 7.68Q51.96 7.50 51.69 7.40L51.69 7.40L51.69 7.40Q51.42 7.30 51.09 7.30L51.09 7.30L51.09 7.30Q50.85 7.30 50.57 7.36L50.57 7.36L50.57 7.36Q50.29 7.41 50.02 7.51L50.02 7.51L50.02 7.51Q49.74 7.62 49.49 7.75L49.49 7.75L49.49 7.75Q49.23 7.89 49.04 8.05L49.04 8.05L48.92 7.98L48.64 6.99L48.64 6.99Q49.04 6.77 49.41 6.63L49.41 6.63L49.41 6.63Q49.78 6.49 50.12 6.41L50.12 6.41L50.12 6.41Q50.46 6.32 50.76 6.29L50.76 6.29L50.76 6.29Q51.07 6.26 51.35 6.26L51.35 6.26L51.35 6.26Q52.63 6.26 53.25 6.79L53.25 6.79L53.25 6.79Q53.87 7.32 53.87 8.38L53.87 8.38L53.87 11.95L53.87 11.95Q53.87 12.04 53.88 12.16L53.88 12.16L53.88 12.16Q53.89 12.29 53.95 12.41L53.95 12.41L53.95 12.41Q54.00 12.52 54.10 12.61L54.10 12.61L54.10 12.61Q54.20 12.69 54.37 12.69L54.37 12.69L54.37 12.69Q54.46 12.69 54.62 12.66L54.62 12.66L54.62 12.66Q54.78 12.63 54.93 12.55L54.93 12.55L54.93 13.28L54.93 13.28Q54.61 13.50 54.27 13.64L54.27 13.64L54.27 13.64Q53.94 13.78 53.63 13.78L53.63 13.78L53.63 13.78Q53.35 13.78 53.17 13.67L53.17 13.67L53.17 13.67Q52.99 13.56 52.87 13.38L52.87 13.38L52.87 13.38Q52.75 13.20 52.68 12.98L52.68 12.98L52.68 12.98Q52.62 12.77 52.57 12.56ZM52.57 11.69L52.57 10.10L52.05 10.10L52.05 10.10Q51.25 10.10 50.77 10.22L50.77 10.22L50.77 10.22Q50.30 10.33 50.05 10.52L50.05 10.52L50.05 10.52Q49.80 10.71 49.72 10.95L49.72 10.95L49.72 10.95Q49.64 11.20 49.64 11.46L49.64 11.46L49.64 11.46Q49.64 11.75 49.72 11.98L49.72 11.98L49.72 11.98Q49.81 12.20 49.95 12.36L49.95 12.36L49.95 12.36Q50.10 12.52 50.31 12.61L50.31 12.61L50.31 12.61Q50.51 12.69 50.75 12.69L50.75 12.69L50.75 12.69Q50.93 12.69 51.13 12.64L51.13 12.64L51.13 12.64Q51.32 12.60 51.55 12.49L51.55 12.49L51.55 12.49Q51.77 12.37 52.02 12.18L52.02 12.18L52.02 12.18Q52.27 11.99 52.57 11.69L52.57 11.69ZM56.51 11.21L56.51 6.40L57.81 6.40L57.81 10.99L57.81 10.99Q57.81 11.37 57.92 11.68L57.92 11.68L57.92 11.68Q58.02 11.99 58.21 12.22L58.21 12.22L58.21 12.22Q58.40 12.44 58.66 12.56L58.66 12.56L58.66 12.56Q58.93 12.69 59.25 12.69L59.25 12.69L59.25 12.69Q59.53 12.69 59.80 12.59L59.80 12.59L59.80 12.59Q60.07 12.50 60.32 12.34L60.32 12.34L60.32 12.34Q60.57 12.19 60.79 11.99L60.79 11.99L60.79 11.99Q61.01 11.79 61.20 11.57L61.20 11.57L61.20 6.40L62.50 6.40L62.50 13.64L61.49 13.64L61.27 12.40L61.27 12.40Q61.02 12.63 60.73 12.88L60.73 12.88L60.73 12.88Q60.44 13.12 60.12 13.32L60.12 13.32L60.12 13.32Q59.79 13.52 59.43 13.65L59.43 13.65L59.43 13.65Q59.07 13.78 58.67 13.78L58.67 13.78L58.67 13.78Q58.21 13.78 57.81 13.60L57.81 13.60L57.81 13.60Q57.42 13.41 57.13 13.07L57.13 13.07L57.13 13.07Q56.84 12.74 56.68 12.26L56.68 12.26L56.68 12.26Q56.51 11.79 56.51 11.21L56.51 11.21ZM65.54 11.83L65.54 7.44L64.08 7.44L64.19 6.77L64.19 6.77Q64.72 6.66 65.04 6.49L65.04 6.49L65.04 6.49Q65.37 6.32 65.57 6.07L65.57 6.07L65.57 6.07Q65.78 5.82 65.92 5.46L65.92 5.46L65.92 5.46Q66.06 5.10 66.24 4.60L66.24 4.60L66.84 4.60L66.84 6.40L69.47 6.40L69.19 7.44L66.84 7.44L66.84 11.48L66.84 11.48Q66.84 11.81 66.94 12.04L66.94 12.04L66.94 12.04Q67.04 12.27 67.22 12.41L67.22 12.41L67.22 12.41Q67.40 12.56 67.65 12.62L67.65 12.62L67.65 12.62Q67.90 12.69 68.21 12.69L68.21 12.69L68.21 12.69Q68.52 12.69 68.83 12.63L68.83 12.63L68.83 12.63Q69.15 12.57 69.43 12.47L69.43 12.47L69.43 13.21L69.43 13.21Q69.00 13.49 68.52 13.63L68.52 13.63L68.52 13.63Q68.04 13.78 67.55 13.78L67.55 13.78L67.55 13.78Q67.09 13.78 66.73 13.65L66.73 13.65L66.73 13.65Q66.36 13.52 66.09 13.28L66.09 13.28L66.09 13.28Q65.83 13.03 65.69 12.66L65.69 12.66L65.69 12.66Q65.54 12.30 65.54 11.83L65.54 11.83ZM71.42 13.64L71.42 2.69L72.72 2.69L72.72 7.57L72.72 7.57Q72.97 7.36 73.27 7.12L73.27 7.12L73.27 7.12Q73.57 6.89 73.92 6.70L73.92 6.70L73.92 6.70Q74.27 6.51 74.65 6.38L74.65 6.38L74.65 6.38Q75.03 6.26 75.44 6.26L75.44 6.26L75.44 6.26Q75.93 6.26 76.33 6.45L76.33 6.45L76.33 6.45Q76.73 6.64 77.02 6.98L77.02 6.98L77.02 6.98Q77.31 7.31 77.46 7.79L77.46 7.79L77.46 7.79Q77.62 8.26 77.62 8.85L77.62 8.85L77.62 13.64L76.32 13.64L76.32 8.96L76.32 8.96Q76.32 8.56 76.20 8.26L76.20 8.26L76.20 8.26Q76.09 7.96 75.90 7.76L75.90 7.76L75.90 7.76Q75.70 7.55 75.43 7.45L75.43 7.45L75.43 7.45Q75.15 7.36 74.84 7.36L74.84 7.36L74.84 7.36Q74.27 7.36 73.75 7.66L73.75 7.66L73.75 7.66Q73.24 7.96 72.72 8.45L72.72 8.45L72.72 13.64L71.42 13.64Z"></path></g><!----><!----></svg>